{
  "accessors": [
    {
      "bufferView": 1,
      "componentType": 5126,
      "count": 14220,
      "max": [
        71.654006958007812,
        7.9536299705505371,
        70.304908752441406
      ],
      "min": [
        -48.338516235351562,
        1.9536300897598267,
        -49.691352844238281
      ],
      "type": "VEC3"
    },
    {
      "bufferView": 1,
      "byteOffset": 170640,
      "componentType": 5126,
      "count": 14220,
      "max": [
        1,
        1,
        1
      ],
      "min": [
        -0.99999958276748657,
        -1,
        -1
      ],
      "type": "VEC3"
    },
    {
      "bufferView": 2,
      "componentType": 5126,
      "count": 14220,
      "max": [
        0.54901963472366333,
        0.54901963472366333,
        0.51764708757400513,
        1
      ],
      "min": [
        0.54901963472366333,
        0.54901963472366333,
        0.51764708757400513,
        1
      ],
      "type": "VEC4"
    },
    {
      "bufferView": 0,
      "componentType": 5125,
      "count": 78270,
      "max": [
        14219
      ],
      "min": [
        0
      ],
      "type": "SCALAR"
    }
  ],
  "asset": {
    "extras": {
      "author": "reactron (https://sketchfab.com/reactron)",
      "license": "CC-BY-4.0 (http://creativecommons.org/licenses/by/4.0/)",
      "source": "https://sketchfab.com/3d-models/yamaha-logo-v3-78e81b64c5f24888a1af0154943c811a",
      "title": "Yamaha Logo V3"
    },
    "generator": "Sketchfab-7.84.0",
    "version": "2.0"
  },
  "bufferViews": [
    {
      "buffer": 0,
      "byteLength": 313080,
      "byteOffset": 0,
      "name": "floatBufferViews",
      "target": 34963
    },
    {
      "buffer": 0,
      "byteLength": 341280,
      "byteOffset": 313080,
      "byteStride": 12,
      "name": "floatBufferViews",
      "target": 34962
    },
    {
      "buffer": 0,
      "byteLength": 227520,
      "byteOffset": 654360,
      "byteStride": 16,
      "name": "floatBufferViews",
      "target": 34962
    }
  ],
  "buffers": [
    {
      "byteLength": 881880,
      "uri": "scene.bin"
    }
  ],
  "materials": [
    {
      "doubleSided": true,
      "name": "Scene_-_Root",
      "pbrMetallicRoughness": {
        "baseColorFactor": [
          1,
          1,
          1,
          1
        ],
        "metallicFactor": 0,
        "roughnessFactor": 0.59999999999999998
      }
    }
  ],
  "meshes": [
    {
      "primitives": [
        {
          "attributes": {
            "COLOR_0": 2,
            "NORMAL": 1,
            "POSITION": 0
          },
          "indices": 3,
          "material": 0,
          "mode": 4
        }
      ]
    }
  ],
  "nodes": [
    {
      "children": [
        1
      ],
      "name": "RootNode (gltf orientation matrix)",
      "rotation": [
        -0.70710678118654746,
        -0,
        -0,
        0.70710678118654757
      ]
    },
    {
      "children": [
        2
      ],
      "name": "RootNode (model correction matrix)"
    },
    {
      "children": [
        3
      ],
      "name": "yamahaLogo v3.stl.cleaner.materialmerger.gles"
    },
    {
      "mesh": 0,
      "name": ""
    }
  ],
  "scene": 0,
  "scenes": [
    {
      "name": "OSG_Scene",
      "nodes": [
        0
      ]
    }
  ]
}

